<svg id="visual" viewBox="0 0 1200 420" width="1200" height="420" xmlns="http://www.w3.org/2000/svg" xmlns:xlink="http://www.w3.org/1999/xlink" version="1.1"><rect x="0" y="0" width="1200" height="420" fill="#fffceb"></rect><path d="M0 357L11.8 353.8C23.7 350.7 47.3 344.3 70.8 342.7C94.3 341 117.7 344 141.2 348.2C164.7 352.3 188.3 357.7 211.8 362.3C235.3 367 258.7 371 282.2 370.3C305.7 369.7 329.3 364.3 353 358.3C376.7 352.3 400.3 345.7 423.8 342.2C447.3 338.7 470.7 338.3 494.2 338.3C517.7 338.3 541.3 338.7 564.8 343.2C588.3 347.7 611.7 356.3 635.2 358.2C658.7 360 682.3 355 705.8 350.7C729.3 346.3 752.7 342.7 776.2 346.2C799.7 349.7 823.3 360.3 847 363C870.7 365.7 894.3 360.3 917.8 361C941.3 361.7 964.7 368.3 988.2 367.7C1011.7 367 1035.3 359 1058.8 354.2C1082.3 349.3 1105.7 347.7 1129.2 349.7C1152.7 351.7 1176.3 357.3 1188.2 360.2L1200 363L1200 421L1188.2 421C1176.3 421 1152.7 421 1129.2 421C1105.7 421 1082.3 421 1058.8 421C1035.3 421 1011.7 421 988.2 421C964.7 421 941.3 421 917.8 421C894.3 421 870.7 421 847 421C823.3 421 799.7 421 776.2 421C752.7 421 729.3 421 705.8 421C682.3 421 658.7 421 635.2 421C611.7 421 588.3 421 564.8 421C541.3 421 517.7 421 494.2 421C470.7 421 447.3 421 423.8 421C400.3 421 376.7 421 353 421C329.3 421 305.7 421 282.2 421C258.7 421 235.3 421 211.8 421C188.3 421 164.7 421 141.2 421C117.7 421 94.3 421 70.8 421C47.3 421 23.7 421 11.8 421L0 421Z" fill="#e0d3cc" stroke-linecap="round" stroke-linejoin="miter"></path></svg>