<svg id="visual" viewBox="0 0 1200 420" width="1200" height="420" xmlns="http://www.w3.org/2000/svg" xmlns:xlink="http://www.w3.org/1999/xlink" version="1.1"><rect x="0" y="0" width="1200" height="420" fill="#fffceb"></rect><path d="M0 336L11.8 341C23.7 346 47.3 356 70.8 360.7C94.3 365.3 117.7 364.7 141.2 362.7C164.7 360.7 188.3 357.3 211.8 353.5C235.3 349.7 258.7 345.3 282.2 341.8C305.7 338.3 329.3 335.7 353 335.7C376.7 335.7 400.3 338.3 423.8 345.5C447.3 352.7 470.7 364.3 494.2 370.5C517.7 376.7 541.3 377.3 564.8 370.8C588.3 364.3 611.7 350.7 635.2 347.3C658.7 344 682.3 351 705.8 357.5C729.3 364 752.7 370 776.2 372C799.7 374 823.3 372 847 365.8C870.7 359.7 894.3 349.3 917.8 351.2C941.3 353 964.7 367 988.2 367.3C1011.7 367.7 1035.3 354.3 1058.8 349.2C1082.3 344 1105.7 347 1129.2 350.3C1152.7 353.7 1176.3 357.3 1188.2 359.2L1200 361L1200 421L1188.2 421C1176.3 421 1152.7 421 1129.2 421C1105.7 421 1082.3 421 1058.8 421C1035.3 421 1011.7 421 988.2 421C964.7 421 941.3 421 917.8 421C894.3 421 870.7 421 847 421C823.3 421 799.7 421 776.2 421C752.7 421 729.3 421 705.8 421C682.3 421 658.7 421 635.2 421C611.7 421 588.3 421 564.8 421C541.3 421 517.7 421 494.2 421C470.7 421 447.3 421 423.8 421C400.3 421 376.7 421 353 421C329.3 421 305.7 421 282.2 421C258.7 421 235.3 421 211.8 421C188.3 421 164.7 421 141.2 421C117.7 421 94.3 421 70.8 421C47.3 421 23.7 421 11.8 421L0 421Z" fill="#e0d3cc" stroke-linecap="round" stroke-linejoin="miter"></path></svg>