<svg id="visual" viewBox="0 0 1200 420" width="1200" height="420" xmlns="http://www.w3.org/2000/svg" xmlns:xlink="http://www.w3.org/1999/xlink" version="1.1"><rect x="0" y="0" width="1200" height="420" fill="#fffceb"></rect><path d="M0 348L11.8 349.3C23.7 350.7 47.3 353.3 70.8 353.5C94.3 353.7 117.7 351.3 141.2 350.8C164.7 350.3 188.3 351.7 211.8 353.8C235.3 356 258.7 359 282.2 360.8C305.7 362.7 329.3 363.3 353 364.3C376.7 365.3 400.3 366.7 423.8 365.2C447.3 363.7 470.7 359.3 494.2 355.8C517.7 352.3 541.3 349.7 564.8 349C588.3 348.3 611.7 349.7 635.2 350.7C658.7 351.7 682.3 352.3 705.8 353.8C729.3 355.3 752.7 357.7 776.2 359.5C799.7 361.3 823.3 362.7 847 360.5C870.7 358.3 894.3 352.7 917.8 350C941.3 347.3 964.7 347.7 988.2 347.8C1011.7 348 1035.3 348 1058.8 351.3C1082.3 354.7 1105.7 361.3 1129.2 361.5C1152.7 361.7 1176.3 355.3 1188.2 352.2L1200 349L1200 421L1188.2 421C1176.3 421 1152.7 421 1129.2 421C1105.7 421 1082.3 421 1058.8 421C1035.3 421 1011.7 421 988.2 421C964.7 421 941.3 421 917.8 421C894.3 421 870.7 421 847 421C823.3 421 799.7 421 776.2 421C752.7 421 729.3 421 705.8 421C682.3 421 658.7 421 635.2 421C611.7 421 588.3 421 564.8 421C541.3 421 517.7 421 494.2 421C470.7 421 447.3 421 423.8 421C400.3 421 376.7 421 353 421C329.3 421 305.7 421 282.2 421C258.7 421 235.3 421 211.8 421C188.3 421 164.7 421 141.2 421C117.7 421 94.3 421 70.8 421C47.3 421 23.7 421 11.8 421L0 421Z" fill="#e0d3cc" stroke-linecap="round" stroke-linejoin="miter"></path></svg>